<?xml version="1.0" standalone="no"?>
<!DOCTYPE svg PUBLIC "-//W3C//DTD SVG 20010904//EN"
 "http://www.w3.org/TR/2001/REC-SVG-20010904/DTD/svg10.dtd">
<svg version="1.0" xmlns="http://www.w3.org/2000/svg"
 width="700.000000pt" height="700.000000pt" viewBox="0 0 700.000000 700.000000"
 preserveAspectRatio="xMidYMid meet">
<metadata>
Created by potrace 1.14, written by Peter Selinger 2001-2017
</metadata>
<g transform="translate(0.000000,700.000000) scale(0.100000,-0.100000)"
fill="#000000" stroke="none">
<path d="M2340 6413 c-272 -113 -497 -208 -500 -211 -3 -2 3 -9 14 -16 129
-79 302 -252 451 -451 351 -470 451 -656 510 -947 l5 -27 83 39 c104 49 213
84 341 112 134 28 387 30 521 5 304 -60 546 -187 760 -402 207 -207 331 -436
397 -733 31 -139 31 -423 0 -564 -32 -144 -75 -265 -150 -410 -2 -5 4 -8 14
-8 79 0 347 -117 504 -220 135 -89 475 -348 585 -446 100 -89 210 -220 261
-310 l31 -55 221 535 c122 295 222 539 222 544 0 5 -124 89 -275 188 l-275
179 7 60 c4 33 7 134 7 225 0 91 -3 192 -7 225 l-7 60 275 179 c151 99 275
183 275 188 0 7 -294 725 -445 1085 0 1 -137 -27 -305 -62 -168 -36 -315 -64
-326 -65 -15 0 -50 33 -114 104 -75 85 -261 262 -300 286 -5 3 22 152 60 330
37 179 67 325 66 326 -11 8 -1075 444 -1083 444 -6 0 -92 -124 -192 -276 -169
-258 -183 -276 -206 -270 -21 5 -308 7 -489 2 l-50 -1 -183 280 c-100 154
-188 281 -195 282 -7 1 -236 -91 -508 -204z"/>
<path d="M1360 5931 c-97 -32 -194 -110 -455 -368 -235 -231 -378 -465 -469
-765 -47 -158 -67 -278 -73 -458 -18 -492 134 -992 461 -1524 468 -759 1334
-1618 2060 -2045 859 -505 1697 -545 2347 -111 135 89 199 146 412 368 203
209 237 261 245 373 6 89 -11 153 -64 239 -87 142 -171 221 -484 459 -196 149
-305 220 -424 277 -239 113 -433 111 -613 -5 -59 -38 -222 -195 -408 -392
-136 -145 -175 -164 -335 -164 -95 0 -127 4 -185 24 -247 84 -517 281 -881
645 -389 389 -612 706 -679 962 -8 33 -15 100 -15 154 1 160 39 228 214 378
150 128 319 301 365 371 22 34 50 92 62 128 19 58 21 81 16 187 -5 127 -25
202 -85 321 -106 211 -401 614 -566 773 -137 132 -218 174 -339 179 -45 1 -93
-1 -107 -6z"/>
</g>
</svg>
