<?xml version="1.0" standalone="no"?>
<!DOCTYPE svg PUBLIC "-//W3C//DTD SVG 20010904//EN"
 "http://www.w3.org/TR/2001/REC-SVG-20010904/DTD/svg10.dtd">
<svg version="1.0" xmlns="http://www.w3.org/2000/svg"
 width="700.000000pt" height="700.000000pt" viewBox="0 0 700.000000 700.000000"
 preserveAspectRatio="xMidYMid meet">
<metadata>
Created by potrace 1.14, written by Peter Selinger 2001-2017
</metadata>
<g transform="translate(0.000000,700.000000) scale(0.100000,-0.100000)"
fill="#000000" stroke="none">
<path d="M2886 6983 c-6 -19 -7 -27 -31 -173 -8 -52 -17 -104 -19 -115 -2 -11
-7 -42 -10 -70 -4 -27 -11 -68 -16 -90 -5 -22 -12 -60 -15 -85 -15 -104 -46
-235 -58 -242 -6 -4 -20 -8 -30 -8 -25 0 -263 -87 -322 -118 -27 -14 -94 -50
-148 -79 -105 -59 -106 -59 -55 -113 13 -14 64 -77 113 -140 49 -63 92 -117
95 -120 14 -13 180 -247 180 -254 0 -3 12 -22 26 -43 41 -59 130 -245 159
-330 31 -92 65 -256 65 -311 0 -23 4 -43 8 -46 4 -2 50 16 101 40 94 45 221
87 302 100 24 3 55 9 69 11 14 3 95 6 180 8 237 6 415 -32 623 -135 283 -141
511 -392 620 -685 31 -85 55 -166 63 -220 3 -22 9 -57 14 -77 12 -59 9 -325
-6 -413 -18 -103 -67 -261 -109 -347 l-32 -67 61 0 c253 2 523 -78 811 -241
94 -53 425 -277 557 -377 l57 -43 44 92 c51 105 74 161 124 303 20 55 40 105
47 111 6 6 52 19 101 28 50 10 108 21 130 26 22 6 120 26 219 45 98 19 182 38
186 40 5 3 9 288 10 634 l1 629 -27 6 c-23 6 -239 44 -344 60 -19 3 -89 15
-155 26 -66 12 -140 24 -164 27 -92 11 -90 10 -132 123 -22 58 -50 128 -64
157 -14 28 -25 54 -25 56 0 4 -125 268 -136 288 -2 3 39 64 92 135 52 71 109
149 126 174 18 25 71 97 118 160 47 63 96 130 108 148 l23 32 -21 28 c-11 15
-217 224 -456 464 l-436 437 -171 -126 c-95 -69 -200 -147 -234 -172 -34 -25
-74 -55 -89 -66 -16 -11 -56 -41 -91 -67 l-62 -48 -133 69 c-117 60 -248 115
-428 179 -30 11 -55 24 -56 28 0 5 -4 38 -9 74 -11 82 -10 81 -20 170 -4 41
-9 82 -10 90 -2 8 -6 44 -9 80 -7 64 -11 102 -21 178 -2 20 -7 66 -10 101 -3
35 -7 67 -9 70 -3 4 -288 8 -634 9 -599 3 -631 2 -636 -15z"/>
<path d="M1087 5989 c-102 -16 -181 -62 -287 -169 -396 -399 -489 -517 -611
-775 -42 -90 -112 -278 -124 -334 -2 -9 -10 -47 -19 -86 -37 -174 -45 -263
-41 -465 11 -588 214 -1118 674 -1765 47 -66 87 -122 91 -125 3 -3 32 -39 65
-80 67 -85 203 -245 285 -335 71 -78 457 -464 536 -535 267 -241 555 -474 766
-618 91 -63 259 -172 264 -172 2 0 27 -15 56 -34 244 -155 627 -323 914 -400
244 -67 425 -91 664 -91 351 1 601 57 895 200 215 105 387 230 544 400 31 32
69 73 85 90 15 16 56 61 90 99 33 38 68 77 77 85 39 39 111 136 133 180 64
125 57 254 -21 387 -92 157 -290 326 -708 604 -44 29 -93 62 -108 72 -49 34
-240 126 -307 148 -214 72 -385 60 -552 -37 -87 -50 -271 -237 -451 -458 -78
-95 -96 -112 -162 -154 -199 -126 -487 -68 -854 172 -239 158 -649 517 -886
778 -108 119 -126 140 -198 232 -95 121 -173 247 -224 362 -50 111 -57 138
-68 272 -7 93 8 165 52 243 14 25 105 124 202 220 368 366 435 473 426 688 -6
156 -20 212 -86 345 -75 150 -156 266 -388 557 -310 389 -516 531 -724 499z"/>
</g>
</svg>
